<?xml version="1.0" standalone="no"?>
<!DOCTYPE svg PUBLIC "-//W3C//DTD SVG 20010904//EN"
 "http://www.w3.org/TR/2001/REC-SVG-20010904/DTD/svg10.dtd">
<svg version="1.0" xmlns="http://www.w3.org/2000/svg"
 width="225.000000pt" height="225.000000pt" viewBox="0 0 225.000000 225.000000"
 preserveAspectRatio="xMidYMid meet">

<g transform="translate(0.000000,225.000000) scale(0.100000,-0.100000)"
fill="#000000" stroke="none">
<path d="M1087 2163 c-3 -5 -11 -28 -17 -53 l-13 -45 -20 48 c-20 47 -44 67
-31 25 13 -43 45 -99 53 -94 5 3 14 26 21 51 14 50 21 49 40 -7 6 -21 17 -38
24 -38 7 0 21 23 32 52 10 29 21 56 22 60 2 4 -1 8 -6 8 -6 0 -18 -22 -27 -50
-9 -27 -18 -50 -20 -50 -2 0 -11 23 -20 50 -16 47 -28 60 -38 43z"/>
<path d="M1236 2144 c-3 -9 -6 -35 -6 -59 0 -46 13 -56 70 -54 20 1 17 3 -12
11 -31 8 -38 15 -38 34 0 23 3 24 43 19 31 -4 37 -3 22 4 -11 5 -30 10 -43 10
-17 1 -22 6 -20 19 3 13 13 17 48 15 36 -2 40 0 20 7 -41 14 -77 11 -84 -6z"/>
<path d="M796 2118 c-22 -5 -42 -10 -44 -13 -3 -3 26 -104 33 -113 4 -5 71 22
88 36 9 8 17 27 17 42 0 45 -33 61 -94 48z m62 -20 c20 -20 14 -56 -13 -74
-14 -9 -31 -14 -38 -11 -14 5 -39 76 -31 89 8 12 68 10 82 -4z"/>
<path d="M1454 2111 c4 -6 14 -11 22 -11 23 0 27 -24 10 -65 -18 -42 -20 -55
-8 -55 4 0 16 23 26 51 10 28 23 48 30 46 45 -17 52 -13 11 7 -68 32 -99 41
-91 27z"/>
<path d="M640 2063 c-49 -18 -66 -75 -32 -106 36 -33 118 -11 123 33 7 63 -32
94 -91 73z m47 -11 c6 -4 16 -20 22 -35 9 -23 7 -31 -9 -47 -24 -24 -47 -25
-72 -3 -25 22 -23 59 4 77 25 18 37 19 55 8z"/>
<path d="M1587 1995 c-15 -30 -22 -55 -17 -55 5 0 14 9 20 20 15 28 38 14 50
-31 13 -48 25 -51 16 -4 -6 31 -4 35 14 35 36 0 37 30 2 62 -18 15 -38 28 -45
28 -7 0 -25 -25 -40 -55z m77 16 c30 -33 -1 -55 -38 -28 -11 8 -15 19 -10 30
8 22 27 22 48 -2z"/>
<path d="M489 1975 c-35 -19 -55 -66 -40 -94 17 -31 58 -38 100 -15 40 21 48
41 29 66 -12 16 -15 16 -38 -3 -20 -16 -21 -18 -4 -10 39 19 48 -19 10 -44
-17 -12 -30 -13 -49 -6 -54 21 -38 91 26 110 19 5 24 9 12 10 -11 0 -32 -6
-46 -14z"/>
<path d="M1731 1929 c-37 -50 -37 -49 -11 -81 33 -42 57 -42 104 2 22 21 37
42 32 47 -4 4 -23 -9 -41 -29 -36 -42 -54 -47 -78 -20 -22 24 -22 25 9 72 36
55 23 62 -15 9z"/>
<path d="M1865 1830 c-3 -5 4 -28 15 -51 15 -29 18 -45 11 -52 -12 -12 -49 16
-61 47 -4 12 -9 15 -13 9 -11 -18 42 -73 69 -73 35 0 40 24 14 65 -17 27 -20
39 -12 47 13 13 50 -15 62 -46 4 -12 9 -15 13 -9 11 18 -42 73 -68 73 -13 0
-27 -4 -30 -10z"/>
<path d="M310 1812 c0 -5 11 -19 25 -32 14 -13 23 -26 20 -29 -3 -2 -27 -4
-53 -2 -76 4 -83 -17 -22 -62 27 -20 51 -33 54 -28 3 5 -13 21 -36 37 l-41 29
71 3 c40 2 72 6 72 10 0 10 -73 82 -83 82 -4 0 -7 -4 -7 -8z"/>
<path d="M1999 1721 l21 -30 -45 -32 c-58 -42 -48 -59 12 -18 37 26 47 29 54
18 21 -35 28 -43 33 -38 7 7 -76 129 -87 129 -5 0 1 -13 12 -29z"/>
<path d="M186 1658 c-18 -26 -21 -42 -5 -33 15 10 91 -43 84 -58 -4 -7 3 -1
14 12 12 13 21 28 21 35 0 8 -3 7 -8 -1 -11 -17 -95 34 -88 53 8 21 -1 17 -18
-8z"/>
<path d="M1029 1594 c-5 -15 -11 -30 -14 -34 -2 -3 33 -4 78 -2 45 2 99 0 120
-6 44 -12 54 -3 37 39 l-12 29 -99 0 c-98 0 -100 0 -110 -26z"/>
<path d="M1684 1600 c-13 -5 -32 -37 -54 -87 -70 -167 -60 -150 -79 -128 -50
58 -112 108 -121 99 -6 -6 19 -38 75 -94 51 -51 88 -80 93 -75 9 10 122 278
122 289 0 8 -10 7 -36 -4z"/>
<path d="M742 1447 c-70 -70 -73 -75 -61 -100 7 -15 18 -27 25 -27 7 0 35 29
63 64 28 35 62 71 76 80 14 9 25 20 25 25 0 6 -42 31 -53 31 -1 0 -35 -33 -75
-73z"/>
<path d="M829 1353 c-27 -7 -49 -58 -49 -118 0 -59 23 -123 47 -132 37 -14 54
-121 20 -124 -25 -3 -42 3 -50 17 -14 25 -27 15 -27 -19 0 -50 44 -82 88 -66
30 11 52 66 52 130 0 59 -19 105 -60 144 -52 50 -30 127 25 91 25 -16 25 -16
25 18 0 42 -30 68 -71 59z"/>
<path d="M1265 1336 c-52 -52 -41 -177 21 -237 27 -26 34 -41 34 -71 0 -50
-27 -66 -64 -37 l-26 20 0 -39 c0 -45 17 -64 57 -64 37 0 70 41 78 97 11 67
-1 110 -45 161 -29 33 -40 54 -40 79 0 39 24 53 50 30 23 -21 34 -5 25 36 -4
19 -16 34 -32 40 -32 12 -30 12 -58 -15z"/>
<path d="M957 1343 c-4 -3 -7 -103 -7 -220 0 -199 1 -214 18 -211 15 3 18 21
22 168 l5 164 23 -146 c30 -184 31 -188 52 -188 15 0 21 16 35 93 9 50 22 126
29 167 l14 75 1 -163 c1 -139 3 -164 17 -169 9 -3 19 -1 23 5 3 5 4 104 1 218
-5 207 -5 209 -27 212 -30 4 -38 -15 -66 -173 -14 -77 -26 -122 -30 -110 -3
11 -16 74 -27 140 -12 66 -26 126 -32 133 -11 13 -40 16 -51 5z"/>
<path d="M1400 1130 l0 -221 23 3 22 3 0 215 0 215 -22 3 -23 3 0 -221z"/>
<path d="M1548 1097 c-8 -101 -48 -188 -123 -266 -188 -197 -507 -168 -667 59
l-18 25 10 -28 c26 -73 102 -156 194 -211 l60 -36 124 0 c173 0 188 6 305 119
89 86 99 100 117 159 20 65 26 181 11 232 -5 18 -9 3 -13 -53z"/>
<path d="M625 1148 c-2 -7 -6 -47 -7 -90 l-3 -76 -109 44 c-104 42 -110 43
-138 28 -16 -9 -27 -18 -23 -22 17 -18 291 -119 296 -110 11 17 10 226 -1 233
-6 3 -12 0 -15 -7z"/>
<path d="M1745 1034 c-59 -24 -109 -45 -110 -46 -2 -2 0 -20 4 -40 l6 -37 153
61 c84 33 150 63 147 66 -3 4 -25 14 -49 23 l-43 16 -108 -43z"/>
<path d="M145 759 c-4 -11 -16 -24 -28 -29 -21 -8 -20 -9 5 -9 14 -1 35 -4 45
-7 17 -5 17 -5 0 9 -13 11 -17 22 -12 36 3 12 4 21 1 21 -2 0 -8 -9 -11 -21z"/>
<path d="M2100 735 c-16 -29 -27 -32 -33 -7 -4 13 -5 11 -6 -5 -1 -32 23 -29
45 5 l18 27 7 -25 7 -25 1 28 c1 34 -21 36 -39 2z"/>
<path d="M152 668 c-16 -16 -15 -39 4 -66 27 -39 83 -18 69 27 -14 44 -49 63
-73 39z m54 -23 c13 -20 14 -28 4 -40 -18 -22 -39 -18 -52 10 -8 19 -8 28 2
40 17 21 27 19 46 -10z"/>
<path d="M2028 655 c-14 -32 4 -58 25 -36 8 10 8 12 0 7 -17 -10 -25 11 -13
34 6 11 8 20 5 20 -3 0 -11 -11 -17 -25z"/>
<path d="M2070 655 c-11 -13 -10 -14 3 -9 10 3 17 -1 20 -13 3 -12 5 -9 6 10
1 30 -10 35 -29 12z"/>
<path d="M727 613 c-97 -42 -110 -50 -123 -82 -8 -19 -13 -40 -12 -47 3 -10
288 104 288 116 0 3 -10 17 -23 32 l-22 27 -108 -46z"/>
<path d="M1425 630 c-10 -11 -16 -22 -14 -24 10 -9 291 -127 295 -124 2 2 -4
19 -14 38 -15 28 -33 40 -131 82 -62 26 -115 48 -116 48 -1 0 -10 -9 -20 -20z"/>
<path d="M223 563 c-28 -19 -29 -44 -4 -67 18 -17 21 -17 45 0 15 9 25 19 22
21 -3 3 -15 -2 -27 -11 -17 -11 -26 -13 -36 -4 -20 16 -16 34 15 57 31 24 18
28 -15 4z"/>
<path d="M1163 429 c-43 -110 -50 -135 -41 -155 6 -13 14 -24 17 -24 6 0 123
292 118 295 -1 2 -11 5 -23 9 -18 6 -25 -7 -71 -125z"/>
<path d="M2005 550 c-3 -5 -12 -7 -20 -3 -27 10 -16 -6 15 -22 36 -19 50 -20
25 -2 -10 8 -15 19 -11 25 4 7 5 12 2 12 -3 0 -7 -4 -11 -10z"/>
<path d="M2046 543 c-6 -14 -5 -15 5 -6 7 7 10 15 7 18 -3 3 -9 -2 -12 -12z"/>
<path d="M1965 490 c18 -20 17 -20 -18 -20 -42 0 -47 -12 -15 -34 32 -23 45
-20 17 4 l-24 19 37 1 c46 0 55 13 23 34 -33 22 -42 20 -20 -4z"/>
<path d="M284 466 c-25 -21 -26 -24 -9 -23 14 1 21 -5 23 -20 3 -21 4 -21 23
-5 22 19 23 30 5 55 -13 17 -15 17 -42 -7z m41 -6 c11 -17 -5 -32 -21 -19 -7
6 -11 15 -8 20 7 12 21 11 29 -1z"/>
<path d="M1876 422 c-3 -5 8 -18 24 -30 17 -13 31 -18 35 -12 3 6 -1 10 -9 10
-8 0 -21 9 -29 21 -8 11 -17 16 -21 11z"/>
<path d="M1827 372 c-22 -24 -22 -42 1 -42 14 0 15 2 2 10 -12 7 -12 12 4 29
11 12 17 21 14 21 -3 0 -12 -8 -21 -18z"/>
<path d="M403 373 c4 -6 -4 -20 -18 -31 -23 -18 -23 -21 -8 -33 9 -8 14 -9 10
-2 -4 6 4 20 18 31 23 18 23 21 8 33 -9 8 -14 9 -10 2z"/>
<path d="M1855 350 c-3 -6 1 -7 9 -4 22 9 21 -22 -1 -35 -10 -6 -13 -11 -7
-11 16 0 34 22 34 42 0 19 -25 25 -35 8z"/>
<path d="M430 305 c-20 -21 -21 -27 -10 -38 7 -6 10 -7 7 -1 -7 12 19 54 33
54 5 0 14 -9 20 -21 14 -25 -5 -53 -29 -44 -13 5 -14 4 -3 -7 15 -15 45 0 50
26 4 17 -23 56 -38 56 -3 0 -17 -11 -30 -25z"/>
<path d="M1780 326 c0 -4 7 -18 16 -31 9 -13 12 -30 8 -36 -4 -8 -3 -9 4 -5
17 10 15 24 -8 53 -11 14 -20 23 -20 19z"/>
<path d="M1731 284 c-1 -17 36 -47 51 -41 9 4 8 6 -3 6 -9 1 -24 11 -32 24 -9
12 -16 17 -16 11z"/>
<path d="M516 245 c-9 -13 -16 -27 -16 -31 0 -9 32 -33 45 -34 5 0 -1 7 -13
16 -24 17 -20 39 5 29 13 -4 14 -3 4 9 -8 9 -8 16 -2 20 5 4 12 2 16 -4 3 -5
11 -10 18 -10 11 0 -22 29 -34 30 -4 0 -14 -11 -23 -25z"/>
<path d="M1669 248 c-15 -10 -15 -13 0 -40 19 -33 32 -35 56 -8 18 20 18 21
-3 40 -24 23 -30 23 -53 8z m31 -7 c0 -12 -20 -25 -27 -18 -7 7 6 27 18 27 5
0 9 -4 9 -9z m19 -37 c-6 -8 -15 -14 -20 -14 -14 0 -11 28 4 33 20 7 29 -4 16
-19z"/>
<path d="M593 191 l-22 -19 29 -5 c16 -4 30 -14 33 -24 3 -10 5 1 6 25 1 47
-10 53 -46 23z m34 -18 c-3 -3 -11 -2 -17 2 -9 6 -9 10 1 16 14 8 27 -7 16
-18z"/>
<path d="M1580 170 c12 -23 10 -24 -25 -8 -14 6 -27 9 -30 6 -8 -7 16 -58 27
-58 5 0 4 9 -2 19 -16 30 -12 33 21 16 17 -9 33 -14 35 -12 7 7 -18 57 -28 57
-5 0 -4 -9 2 -20z"/>
<path d="M671 148 c-11 -32 -3 -48 24 -48 6 1 2 5 -7 11 -17 9 -17 12 -3 39 9
17 11 30 6 30 -5 0 -14 -14 -20 -32z"/>
<path d="M1470 150 c-9 -6 -10 -10 -3 -10 6 0 14 -13 18 -29 4 -21 11 -28 22
-24 10 4 11 8 3 13 -6 4 -14 19 -18 33 -5 20 -10 24 -22 17z"/>
<path d="M795 108 c-15 -37 -12 -47 7 -27 12 13 20 59 11 59 -2 0 -10 -15 -18
-32z"/>
<path d="M834 110 c0 -11 5 -19 11 -17 5 2 10 10 10 17 0 7 -5 15 -10 17 -6 2
-11 -6 -11 -17z"/>
<path d="M1363 114 c21 -7 17 -28 -5 -32 -9 -2 -18 5 -21 15 -4 16 -5 15 -5
-2 0 -11 3 -29 8 -40 8 -18 9 -19 9 -1 1 15 6 17 29 12 15 -4 22 -3 15 1 -6 5
-11 17 -10 28 1 13 -5 20 -18 22 -16 1 -17 1 -2 -3z"/>
<path d="M879 78 c-12 -18 -16 -28 -9 -21 13 12 40 7 52 -11 9 -14 10 10 2 42
-9 30 -19 28 -45 -10z m30 -7 c-15 -5 -22 6 -14 19 6 9 10 9 16 -1 5 -8 4 -15
-2 -18z"/>
<path d="M965 69 c-4 -17 -4 -33 -1 -36 3 -4 6 -1 6 5 0 17 20 15 44 -5 20
-17 20 -17 7 -1 -11 15 -11 21 0 34 10 13 10 17 -2 25 -28 17 -47 10 -54 -22z
m45 6 c0 -8 -7 -15 -15 -15 -8 0 -15 7 -15 15 0 8 7 15 15 15 8 0 15 -7 15
-15z"/>
<path d="M1250 65 c0 -19 3 -35 8 -35 4 0 7 16 7 35 0 19 -3 35 -7 35 -5 0 -8
-16 -8 -35z"/>
<path d="M1079 53 c5 -37 6 -37 9 -8 2 16 9 33 15 37 8 5 4 8 -8 8 -18 0 -20
-5 -16 -37z"/>
<path d="M1147 83 c-2 -5 0 -21 4 -38 l7 -30 1 30 2 30 22 -27 c29 -36 37 -35
37 1 0 35 -20 53 -21 19 l0 -23 -16 23 c-16 22 -29 28 -36 15z"/>
<path d="M1288 33 c7 -3 16 -2 19 1 4 3 -2 6 -13 5 -11 0 -14 -3 -6 -6z"/>
</g>
</svg>
